<svg width="187" height="60" viewBox="0 0 187 60" fill="none" xmlns="http://www.w3.org/2000/svg">
<path d="M60 30C60 13.4315 46.5685 0 30 0C13.4315 0 0 13.4315 0 30C0 46.5685 13.4315 60 30 60C46.5685 60 60 46.5685 60 30Z" fill="#00D533"/>
<path d="M95.9374 14.9452V3.53277H92.1824V1.50503H101.807V3.53277H98.0523V14.9452H95.9344H95.9374Z" fill="#111111"/>
<path d="M103.309 1.50502H105.391V5.50041L105.277 6.98442H105.391C105.656 6.54583 106.043 6.18233 106.557 5.88794C107.071 5.59354 107.638 5.44934 108.266 5.44934C108.894 5.44934 109.387 5.53947 109.825 5.72271C110.264 5.90296 110.627 6.16131 110.916 6.50076C111.204 6.84022 111.414 7.24277 111.553 7.7114C111.688 8.18003 111.757 8.69373 111.757 9.26149V14.9452H109.675V9.54087C109.675 8.77784 109.495 8.22509 109.122 7.89164C108.753 7.55819 108.29 7.38396 107.722 7.38396C107.155 7.38396 107.034 7.45906 106.755 7.61827C106.476 7.77749 106.232 7.98176 106.022 8.24612C105.818 8.51048 105.659 8.80488 105.553 9.14734C105.448 9.4868 105.394 9.83527 105.394 10.1988V14.9512H103.312V1.50502H103.309Z" fill="#111111"/>
<path d="M122.304 12.7492C121.92 13.4612 121.367 14.059 120.655 14.5366C119.943 15.0143 119.066 15.2486 118.029 15.2486C116.993 15.2486 116.705 15.1284 116.122 14.8851C115.539 14.6418 115.04 14.3023 114.608 13.8637C114.184 13.4251 113.851 12.9114 113.607 12.3136C113.364 11.7158 113.253 11.0639 113.253 10.355C113.253 9.64601 113.367 9.06022 113.592 8.47143C113.821 7.87362 114.136 7.35993 114.539 6.91232C114.947 6.46472 115.44 6.11625 116.014 5.85189C116.587 5.58753 117.224 5.45836 117.927 5.45836C118.63 5.45836 119.273 5.57852 119.835 5.81284C120.388 6.04715 120.865 6.3806 121.25 6.81319C121.634 7.23676 121.938 7.75045 122.142 8.34826C122.346 8.94607 122.451 9.60396 122.451 10.3159V10.4811C122.436 10.5412 122.436 10.6013 122.436 10.6464C122.421 10.7004 122.421 10.7455 122.421 10.7966H115.347C115.386 11.2352 115.491 11.6137 115.665 11.9381C115.839 12.2625 116.059 12.5359 116.317 12.7492C116.575 12.9625 116.861 13.1187 117.173 13.2178C117.483 13.317 117.795 13.368 118.095 13.368C118.693 13.368 119.192 13.2238 119.579 12.9355C119.967 12.6471 120.282 12.2926 120.541 11.869L122.328 12.7552H122.304V12.7462V12.7492ZM120.376 9.20141C120.352 9.01216 120.291 8.80788 120.195 8.57356C120.096 8.33925 119.961 8.12596 119.763 7.9367C119.567 7.74144 119.315 7.57321 119.015 7.43803C118.714 7.30285 118.333 7.23376 117.894 7.23376C117.456 7.23376 116.774 7.414 116.344 7.77148C115.912 8.12596 115.617 8.6036 115.473 9.21042H120.376V9.20141Z" fill="#111111"/>
<path d="M77.9732 45.2681C76.4592 45.2681 74.9992 45.0488 73.5753 44.6102C72.1514 44.1716 70.8356 43.5137 69.625 42.6335C68.4143 41.7564 67.3539 40.6659 66.4377 39.3711C65.5214 38.0704 64.8245 36.5624 64.3348 34.847L70.0185 32.5309C70.2618 33.5132 70.6253 34.4385 71.1 35.2916C71.5776 36.1538 72.1514 36.8958 72.8393 37.5327C73.5212 38.1605 74.2933 38.6682 75.1554 39.0317C76.0176 39.3952 76.9729 39.5844 78.0243 39.5844C79.0757 39.5844 79.7426 39.4703 80.5507 39.245C81.3618 39.0167 82.0558 38.6772 82.6536 38.2146C83.2514 37.761 83.735 37.1992 84.0985 36.5263C84.468 35.8594 84.6513 35.0874 84.6513 34.2102C84.6513 33.333 84.5071 32.7352 84.2277 32.1073C83.9483 31.4705 83.5097 30.8967 82.9119 30.368C82.3141 29.8393 81.527 29.3376 80.5447 28.869C79.5624 28.3913 78.3878 27.9167 77.018 27.424L74.6508 26.5829C73.6294 26.2344 72.593 25.7658 71.5175 25.189C70.4421 24.6122 69.4808 23.9093 68.6186 23.0862C67.7565 22.26 67.0595 21.2837 66.5158 20.1662C65.972 19.0457 65.6987 17.7299 65.6987 16.2159C65.6987 14.7018 65.9871 13.4852 66.5699 12.2415C67.1526 11.0008 67.9637 9.90436 69.0152 8.94907C70.0666 8.0028 71.3223 7.25479 72.7852 6.70805C74.2452 6.16431 75.8494 5.89095 77.6068 5.89095C79.3641 5.89095 81.0344 6.14929 82.4283 6.65398C83.8131 7.16166 84.9787 7.80453 85.931 8.57657C86.8773 9.34861 87.6403 10.2048 88.2231 11.133C88.8059 12.0643 89.2294 12.9355 89.5178 13.7375L84.1436 15.9996C83.9693 15.4769 83.711 14.9392 83.3805 14.3954C83.0471 13.8517 82.6175 13.365 82.0858 12.9505C81.5571 12.5269 80.9352 12.1784 80.2173 11.8991C79.4993 11.6197 78.6672 11.4755 77.7209 11.4755C76.7746 11.4755 76.0867 11.5896 75.3537 11.8149C74.6207 12.0433 73.9779 12.3677 73.4311 12.7913C72.8874 13.2148 72.4548 13.7075 72.1454 14.2663C71.827 14.825 71.6677 15.4468 71.6677 16.1047C71.6677 17.4355 72.2205 18.52 73.326 19.3431C74.4315 20.1692 76.0567 20.9473 78.1986 21.6893L80.5658 22.5304C82.0407 23.0231 83.3896 23.5968 84.6212 24.2698C85.8469 24.9367 86.9223 25.7387 87.8296 26.67C88.7458 27.6013 89.4487 28.6827 89.9624 29.9084C90.4701 31.134 90.7255 32.5579 90.7255 34.1771C90.7255 35.7963 90.3319 37.8181 89.5359 39.2089C88.7488 40.5938 87.7334 41.7443 86.5078 42.6606C85.2821 43.5768 83.9123 44.2437 82.3982 44.6583C80.8932 45.0819 79.4152 45.2861 77.9702 45.2861V45.2621L77.9732 45.2681Z" fill="#111111"/>
<path d="M119.573 37.8451C119.081 38.8665 118.477 39.8218 117.756 40.714C117.038 41.6062 116.197 42.4022 115.229 43.0812C114.262 43.7631 113.148 44.3008 111.886 44.6853C110.621 45.0698 109.236 45.2681 107.722 45.2681C106.208 45.2681 103.946 44.9286 102.297 44.2377C100.648 43.5558 99.2239 42.5945 98.0283 41.3688C96.8326 40.1432 95.9014 38.6832 95.2345 36.9949C94.5676 35.3067 94.2341 33.4832 94.2341 31.5155C94.2341 29.5479 94.5676 27.7244 95.2345 26.0361C95.9014 24.3479 96.8326 22.8969 98.0283 21.6622C99.2239 20.4366 100.648 19.4753 102.297 18.7934C103.946 18.1114 105.755 17.763 107.722 17.763C109.69 17.763 110.606 17.9582 111.853 18.3368C113.094 18.7213 114.205 19.259 115.166 19.9409C116.134 20.6228 116.969 21.4159 117.672 22.3081C118.375 23.2003 118.936 24.1406 119.36 25.1229L113.986 27.385C113.388 26.0542 112.562 25.0178 111.51 24.2818C110.459 23.5488 109.119 23.1763 107.506 23.1763C105.893 23.1763 105.583 23.3806 104.691 23.7831C103.799 24.1856 103.003 24.7504 102.321 25.4714C101.633 26.1894 101.095 27.0605 100.687 28.0759C100.278 29.0913 100.08 30.2328 100.08 31.4975C100.08 32.7622 100.284 33.9038 100.687 34.9191C101.089 35.9405 101.633 36.8027 102.321 37.5237C103.009 38.2446 103.796 38.8034 104.691 39.2119C105.583 39.6145 106.524 39.8188 107.506 39.8188C109.119 39.8188 110.495 39.4402 111.637 38.6832C112.778 37.9262 113.664 36.8808 114.292 35.55L119.558 37.812V37.8421H119.567L119.573 37.8451Z" fill="#111111"/>
<path d="M139.839 41.2727H139.52C138.748 42.2941 137.751 43.2103 136.516 44.0335C135.291 44.8596 133.722 45.2681 131.833 45.2681C129.943 45.2681 129.183 45.0488 127.988 44.6102C126.792 44.1716 125.756 43.5588 124.879 42.7627C124.001 41.9757 123.304 41.0444 122.797 39.969C122.289 38.9025 122.034 37.7129 122.034 36.4122C122.034 35.1114 122.307 33.8167 122.851 32.7262C123.395 31.6357 124.152 30.7285 125.113 29.9865C126.08 29.2535 127.225 28.6767 128.565 28.2772C129.895 27.8746 131.334 27.6704 132.884 27.6704C134.434 27.6704 136.048 27.8356 137.204 28.169C138.361 28.5025 139.241 28.8119 139.839 29.0913V28.0909C139.839 27.3189 139.674 26.6009 139.34 25.934C139.007 25.2671 138.553 24.6933 137.97 24.2247C137.387 23.7561 136.736 23.3836 135.994 23.1192C135.252 22.8549 134.488 22.7257 133.677 22.7257C132.377 22.7257 131.211 22.984 130.175 23.4887C129.138 23.9964 128.216 24.8135 127.414 25.94L122.782 22.8819C124.007 21.1936 125.536 19.9229 127.36 19.0607C129.183 18.1986 131.256 17.775 133.572 17.775C137.402 17.775 140.352 18.7213 142.44 20.6198C144.528 22.5124 145.573 25.2221 145.573 28.7248V44.412H139.836V41.2487V41.2637L139.839 41.2727ZM139.839 33.6905C139.067 33.2369 138.205 32.8644 137.258 32.585C136.312 32.3056 135.221 32.1614 133.996 32.1614C132.172 32.1614 130.712 32.585 129.622 33.4261C128.531 34.2673 127.988 35.2886 127.988 36.4843C127.988 37.6799 128.123 37.6739 128.411 38.1425C128.691 38.6201 129.054 39.0287 129.493 39.3772C129.931 39.7256 130.439 39.99 131.022 40.1642C131.605 40.3385 132.187 40.4286 132.785 40.4286C133.731 40.4286 134.639 40.2483 135.495 39.8758C136.357 39.5063 137.099 39.0137 137.736 38.4008C138.373 37.788 138.877 37.0761 139.265 36.268C139.649 35.4569 139.848 34.6037 139.848 33.6875L139.839 33.6965V33.6905Z" fill="#111111"/>
<path d="M151.053 44.43V6.72607H156.896V44.427H151.053V44.43Z" fill="#111111"/>
<path d="M186.44 38.2687C185.35 40.2664 183.806 41.9396 181.808 43.2704C179.811 44.6012 177.35 45.2681 174.436 45.2681C171.522 45.2681 170.72 44.9287 169.092 44.2377C167.458 43.5558 166.049 42.5945 164.853 41.3689C163.658 40.1432 162.726 38.6892 162.06 37.025C161.393 35.3607 161.059 33.5223 161.059 31.5246C161.059 29.5269 161.378 27.8987 162.005 26.2344C162.642 24.5702 163.526 23.1102 164.661 21.8605C165.803 20.6108 167.181 19.6195 168.792 18.8865C170.405 18.1535 172.198 17.781 174.166 17.781C176.134 17.781 177.951 18.1145 179.51 18.7814C181.069 19.4483 182.394 20.3795 183.484 21.5751C184.575 22.7707 185.407 24.2097 185.99 25.889C186.564 27.5772 186.861 29.4157 186.861 31.4224V31.9001C186.822 32.0743 186.807 32.2335 186.807 32.3777C186.768 32.5219 186.753 32.6571 186.753 32.8013H166.902C167.007 34.0269 167.305 35.1024 167.794 36.0096C168.287 36.9259 168.891 37.6739 169.612 38.2717C170.33 38.8695 171.132 39.3081 172.003 39.5874C172.88 39.8668 173.742 40.011 174.583 40.011C176.272 40.011 177.657 39.6085 178.747 38.8004C179.838 37.9893 180.73 36.9919 181.433 35.8023L186.434 38.2777V38.2687H186.44ZM181.021 28.3162C180.952 27.7875 180.787 27.2047 180.522 26.5528C180.258 25.901 179.856 25.3032 179.312 24.7654C178.768 24.2217 178.062 23.7591 177.209 23.3716C176.347 22.987 175.301 22.7978 174.076 22.7978C172.85 22.7978 170.943 23.2965 169.732 24.2968C168.521 25.2972 167.704 26.643 167.281 28.3222H181.024V28.3132L181.021 28.3162Z" fill="#111111"/>
<path d="M143.48 14.1491L135.201 7.60327L126.912 14.1491V9.14735L135.201 2.60152L143.48 9.14735V14.1491Z" fill="#00D533"/>
<path d="M46.752 40.9002L30.0074 27.6613L13.2478 40.9002V30.7856L30.0074 17.5467L46.752 30.7856V40.9002Z" fill="#111111"/>
<path d="M79.2891 50.3269H80.647L83.0172 56.6385H81.7044L81.1847 55.1304H78.7514L78.2317 56.6385H76.9189L79.2891 50.3269ZM80.7972 54.0369L80.2324 52.4598L80.0041 51.6938H79.935L79.7067 52.4598L79.142 54.0369H80.8002H80.7972Z" fill="#111111"/>
<path d="M96.4663 53.1748H99.5605C99.5785 53.2439 99.5936 53.331 99.6056 53.4301C99.6176 53.5293 99.6236 53.6284 99.6236 53.7305C99.6236 54.1361 99.5635 54.5176 99.4373 54.8751C99.3112 55.2326 99.1189 55.554 98.8546 55.8364C98.5722 56.1368 98.2357 56.3681 97.8422 56.5333C97.4487 56.6985 96.998 56.7796 96.4934 56.7796C96.0337 56.7796 95.6042 56.6985 95.1986 56.5333C94.7931 56.3681 94.4416 56.1398 94.1412 55.8454C93.8408 55.551 93.6035 55.2025 93.4262 54.8C93.249 54.3974 93.1619 53.9588 93.1619 53.4812C93.1619 53.0035 93.249 52.565 93.4262 52.1624C93.6035 51.7599 93.8408 51.4114 94.1412 51.117C94.4416 50.8226 94.7931 50.5943 95.1986 50.4291C95.6042 50.2638 96.0367 50.1827 96.4934 50.1827C97.0041 50.1827 97.4607 50.2699 97.8632 50.4471C98.2658 50.6243 98.6112 50.8677 98.8996 51.1771L98.0795 51.9792C97.8752 51.7629 97.6439 51.5946 97.3916 51.4805C97.1392 51.3663 96.8358 51.3093 96.4843 51.3093C96.196 51.3093 95.9226 51.3603 95.6642 51.4625C95.4059 51.5646 95.1806 51.7118 94.9853 51.8981C94.7931 52.0873 94.6369 52.3126 94.5227 52.58C94.4085 52.8473 94.3515 53.1447 94.3515 53.4752C94.3515 53.8056 94.4085 54.103 94.5227 54.3704C94.6369 54.6378 94.7931 54.8661 94.9883 55.0523C95.1836 55.2386 95.4119 55.3858 95.6703 55.4879C95.9286 55.59 96.205 55.6411 96.4994 55.6411C96.8328 55.6411 97.1182 55.593 97.3495 55.4969C97.5808 55.4008 97.7791 55.2746 97.9443 55.1214C98.0615 55.0163 98.1636 54.8811 98.2477 54.7189C98.3318 54.5566 98.3979 54.3764 98.446 54.1781H96.4633V53.1658L96.4663 53.1748Z" fill="#111111"/>
<path d="M112.003 51.4565V52.9194H114.533V54.046H112.003V55.5089H114.815V56.6385H110.814V50.3269H114.815V51.4565H112.003Z" fill="#111111"/>
<path d="M126.687 50.3269H128.072L130.611 54.5566H130.68L130.611 53.34V50.3269H131.791V56.6385H130.538L127.859 52.1684H127.79L127.859 53.3851V56.6385H126.687V50.3269Z" fill="#111111"/>
<path d="M148.575 55.6261C148.262 56.0016 147.896 56.287 147.472 56.4852C147.049 56.6805 146.577 56.7796 146.054 56.7796C145.586 56.7796 145.147 56.6955 144.745 56.5243C144.342 56.3531 143.994 56.1218 143.699 55.8274C143.405 55.533 143.173 55.1845 143.002 54.7819C142.831 54.3794 142.747 53.9468 142.747 53.4812C142.747 53.0156 142.831 52.583 143.002 52.1804C143.173 51.7779 143.405 51.4294 143.699 51.135C143.994 50.8406 144.342 50.6093 144.745 50.4381C145.147 50.2669 145.583 50.1827 146.054 50.1827C146.559 50.1827 147.004 50.2699 147.388 50.4471C147.773 50.6243 148.115 50.8797 148.415 51.2131L147.577 52.0242C147.388 51.8079 147.175 51.6337 146.928 51.5045C146.682 51.3753 146.397 51.3093 146.06 51.3093C145.766 51.3093 145.49 51.3603 145.231 51.4625C144.973 51.5646 144.748 51.7118 144.558 51.8981C144.369 52.0873 144.216 52.3126 144.105 52.58C143.994 52.8473 143.936 53.1447 143.936 53.4752C143.936 53.8056 143.991 54.103 144.105 54.3704C144.219 54.6378 144.369 54.8661 144.558 55.0523C144.751 55.2416 144.973 55.3858 145.231 55.4879C145.49 55.59 145.766 55.6411 146.06 55.6411C146.412 55.6411 146.727 55.569 146.998 55.4248C147.271 55.2806 147.514 55.0763 147.725 54.812L148.572 55.6141L148.575 55.6261Z" fill="#111111"/>
<path d="M161.507 53.7035L159.383 50.3269H160.801L162.063 52.4148H162.132L163.349 50.3269H164.784L162.697 53.7035V56.6385H161.507V53.7035Z" fill="#111111"/>
</svg>
